<svg version="1.1" viewBox="0.0 0.0 240.0997375328084 20.787401574803148" fill="none" stroke="none" stroke-linecap="square" stroke-miterlimit="10" xmlns:xlink="http://www.w3.org/1999/xlink" xmlns="http://www.w3.org/2000/svg"><clipPath id="p.0"><path d="m0 0l240.09973 0l0 20.787401l-240.09973 0l0 -20.787401z" clip-rule="nonzero"/></clipPath><g clip-path="url(#p.0)"><path fill="#000000" fill-opacity="0.0" d="m0 0l240.09973 0l0 20.787401l-240.09973 0z" fill-rule="evenodd"/><path fill="#000000" fill-opacity="0.0" d="m0 0l242.23622 0l0 16.913385l-242.23622 0z" fill-rule="evenodd"/><path fill="#000000" d="m1.595871 19.661068q-0.46875 0 -0.8125 -0.078125q-0.34375 -0.0625 -0.59375 -0.15625l0 -1.21875q0.28125 0.078125 0.578125 0.125q0.28125 0.0625 0.640625 0.0625q0.625 0 1.0 -0.359375q0.390625 -0.34375 0.390625 -1.25l0 -11.593751l1.515625 0l0 11.562501q0 0.90625 -0.296875 1.5625q-0.296875 0.65625 -0.890625 1.0q-0.59375 0.34375 -1.53125 0.34375zm1.0625 -17.203125q0 -0.515625 0.265625 -0.75q0.265625 -0.25 0.65625 -0.25q0.359375 0 0.625 0.25q0.28125 0.234375 0.28125 0.75q0 0.5 -0.28125 0.75q-0.265625 0.234375 -0.625 0.234375q-0.390625 0 -0.65625 -0.234375q-0.265625 -0.25 -0.265625 -0.75zm13.100235 2.734375l0 9.984375l-1.25 0l-0.21875 -1.40625l-0.078125 0q-0.3125 0.515625 -0.8125 0.875q-0.484375 0.359375 -1.09375 0.53125q-0.609375 0.1875 -1.3125 0.1875q-1.171875 0 -1.984375 -0.375q-0.796875 -0.390625 -1.203125 -1.1875q-0.40625 -0.8125 -0.40625 -2.0625l0 -6.546875l1.53125 0l0 6.4375q0 1.234375 0.5625 1.859375q0.5625 0.609375 1.71875 0.609375q1.109375 0 1.765625 -0.40625q0.671875 -0.421875 0.953125 -1.234375q0.296875 -0.828125 0.296875 -2.015625l0 -5.25l1.53125 0zm7.9259033 -0.1875q1.765625 0 2.671875 0.875q0.921875 0.875 0.921875 2.796875l0 6.5l-1.5 0l0 -6.40625q0 -1.25 -0.578125 -1.859375q-0.5625 -0.625 -1.734375 -0.625q-1.65625 0 -2.328125 0.9375q-0.671875 0.9375 -0.671875 2.71875l0 5.234375l-1.515625 0l0 -9.984375l1.21875 0l0.234375 1.4375l0.078125 0q0.3125 -0.53125 0.796875 -0.890625q0.5 -0.359375 1.109375 -0.546875q0.609375 -0.1875 1.296875 -0.1875zm9.488403 14.656251q-1.96875 0 -3.03125 -0.734375q-1.0625 -0.734375 -1.0625 -2.0625q0 -0.93750095 0.59375 -1.609376q0.59375 -0.65625 1.65625 -0.875q-0.390625 -0.171875 -0.671875 -0.53125q-0.28125 -0.375 -0.28125 -0.84375q0 -0.546875 0.3125 -0.953125q0.3125 -0.421875 0.9375 -0.8125q-0.78125 -0.3125 -1.28125 -1.078125q-0.484375 -0.765625 -0.484375 -1.765625q0 -1.078125 0.4375 -1.828125q0.453125 -0.765625 1.296875 -1.171875q0.859375 -0.40625 2.0625 -0.40625q0.265625 0 0.53125 0.03125q0.265625 0.015625 0.515625 0.0625q0.25 0.03125 0.421875 0.09375l3.421875 0l0 0.96875l-1.828125 0.234375q0.265625 0.359375 0.4375 0.859375q0.1875 0.5 0.1875 1.109375q0 1.484375 -1.015625 2.375q-1.0 0.875 -2.765625 0.875q-0.421875 0 -0.859375 -0.078125q-0.4375 0.25 -0.671875 0.546875q-0.234375 0.296875 -0.234375 0.703125q0 0.28125 0.171875 0.453125q0.1875 0.171875 0.515625 0.25q0.34375 0.078125 0.8125 0.078125l1.765625 0q1.625 0 2.484375 0.6875q0.875 0.6875 0.875 2.000001q0 1.65625 -1.34375 2.53125q-1.34375 0.890625 -3.90625 0.890625zm0.046875 -1.1875q1.25 0 2.0625 -0.25q0.8125 -0.25 1.21875 -0.71875q0.40625 -0.46875 0.40625 -1.109375q0 -0.60937595 -0.28125 -0.92187595q-0.265625 -0.296875 -0.796875 -0.390625q-0.53125 -0.109375 -1.296875 -0.109375l-1.71875 0q-0.6875 0 -1.1875 0.203125q-0.5 0.203125 -0.765625 0.609375q-0.265625 0.42187595 -0.265625 1.031251q0 0.8125 0.671875 1.234375q0.6875 0.421875 1.953125 0.421875zm0.390625 -7.984376q1.09375 0 1.640625 -0.546875q0.546875 -0.546875 0.546875 -1.59375q0 -1.109375 -0.5625 -1.671875q-0.546875 -0.5625 -1.640625 -0.5625q-1.03125 0 -1.59375 0.578125q-0.5625 0.578125 -0.5625 1.6875q0 1.015625 0.5625 1.5625q0.5625 0.546875 1.609375 0.546875zm13.364136 1.953125q0 0.953125 -0.484375 1.609375q-0.46875 0.65625 -1.359375 0.984375q-0.890625 0.328125 -2.109375 0.328125q-1.046875 0 -1.8125 -0.171875q-0.765625 -0.15625 -1.34375 -0.46875l0 -1.390625q0.609375 0.296875 1.453125 0.546875q0.859375 0.25 1.734375 0.25q1.296875 0 1.875 -0.421875q0.59375 -0.421875 0.59375 -1.140625q0 -0.40625 -0.234375 -0.71875q-0.234375 -0.3125 -0.78125 -0.609375q-0.546875 -0.296875 -1.515625 -0.65625q-0.953125 -0.359375 -1.65625 -0.71875q-0.6875 -0.359375 -1.078125 -0.875q-0.375 -0.53125 -0.375 -1.359375q0 -1.265625 1.015625 -1.9375q1.03125 -0.6875 2.703125 -0.6875q0.90625 0 1.6875 0.1875q0.796875 0.171875 1.46875 0.46875l-0.5 1.21875q-0.625 -0.265625 -1.328125 -0.4375q-0.703125 -0.1875 -1.421875 -0.1875q-1.046875 0 -1.609375 0.34375q-0.5625 0.34375 -0.5625 0.9375q0 0.46875 0.25 0.78125q0.265625 0.296875 0.84375 0.5625q0.578125 0.25 1.515625 0.609375q0.9375 0.34375 1.609375 0.71875q0.6875 0.375 1.046875 0.90625q0.375 0.515625 0.375 1.328125zm3.9533691 -7.25l0 9.984375l-1.515625 0l0 -9.984375l1.515625 0zm-0.734375 -3.734375q0.359375 0 0.625 0.25q0.28125 0.234375 0.28125 0.75q0 0.5 -0.28125 0.75q-0.265625 0.234375 -0.625 0.234375q-0.390625 0 -0.65625 -0.234375q-0.265625 -0.25 -0.265625 -0.75q0 -0.515625 0.265625 -0.75q0.265625 -0.25 0.65625 -0.25zm5.42836 -0.453125l0 7.359375q0 0.359375 -0.03125 0.890625q-0.015625 0.515625 -0.03125 0.921875l0.0625 0q0.1875 -0.234375 0.546875 -0.703125q0.375 -0.46875 0.625 -0.75l3.328125 -3.53125l1.765625 0l-4.015625 4.265625l4.3125 5.71875l-1.828125 0l-3.515625 -4.734375l-1.21875 1.125l0 3.609375l-1.5 0l0 -14.171875l1.5 0zm8.067444 13.21875q0 -0.625 0.3125 -0.890625q0.3125 -0.28125 0.765625 -0.28125q0.453125 0 0.765625 0.28125q0.328125 0.265625 0.328125 0.890625q0 0.640625 -0.328125 0.921875q-0.3125 0.28125 -0.765625 0.28125q-0.453125 0 -0.765625 -0.28125q-0.3125 -0.28125 -0.3125 -0.921875zm9.135284 1.140625q-1.34375 0 -2.375 -0.546875q-1.03125 -0.5625 -1.609375 -1.703125q-0.578125 -1.140625 -0.578125 -2.875q0 -1.8125 0.609375 -2.96875q0.609375 -1.15625 1.671875 -1.703125q1.0625 -0.5625 2.421875 -0.5625q0.75 0 1.4375 0.15625q0.703125 0.15625 1.15625 0.375l-0.453125 1.265625q-0.453125 -0.171875 -1.0625 -0.3125q-0.59375 -0.15625 -1.109375 -0.15625q-1.03125 0 -1.734375 0.453125q-0.6875 0.4375 -1.03125 1.3125q-0.328125 0.859375 -0.328125 2.125q0 1.203125 0.328125 2.0625q0.328125 0.859375 0.984375 1.3125q0.671875 0.453125 1.65625 0.453125q0.796875 0 1.4375 -0.171875q0.640625 -0.171875 1.15625 -0.390625l0 1.34375q-0.5 0.25 -1.125 0.390625q-0.609375 0.140625 -1.453125 0.140625zm6.4520416 -14.359375l0 4.234375q0 0.359375 -0.03125 0.734375q-0.015625 0.359375 -0.046875 0.671875l0.09375 0q0.3125 -0.53125 0.78125 -0.890625q0.484375 -0.359375 1.09375 -0.53125q0.609375 -0.1875 1.296875 -0.1875q1.203125 0 2.0 0.390625q0.8125 0.375 1.21875 1.171875q0.40625 0.796875 0.40625 2.078125l0 6.5l-1.5 0l0 -6.40625q0 -1.25 -0.578125 -1.859375q-0.5625 -0.625 -1.734375 -0.625q-1.109375 0 -1.765625 0.421875q-0.65625 0.421875 -0.953125 1.25q-0.28125 0.8125 -0.28125 2.0l0 5.21875l-1.515625 0l0 -14.171875l1.515625 0zm18.535278 9.15625q0 1.234375 -0.328125 2.203125q-0.3125 0.96875 -0.921875 1.640625q-0.59375 0.65625 -1.453125 1.015625q-0.84375 0.34375 -1.921875 0.34375q-1.0 0 -1.828125 -0.34375q-0.828125 -0.359375 -1.4375 -1.015625q-0.609375 -0.671875 -0.953125 -1.640625q-0.328125 -0.96875 -0.328125 -2.203125q0 -1.640625 0.5625 -2.78125q0.5625 -1.15625 1.59375 -1.765625q1.03125 -0.609375 2.453125 -0.609375q1.375 0 2.390625 0.609375q1.03125 0.609375 1.59375 1.765625q0.578125 1.15625 0.578125 2.78125zm-7.59375 0q0 1.203125 0.3125 2.09375q0.328125 0.875 0.984375 1.359375q0.671875 0.484375 1.71875 0.484375q1.03125 0 1.703125 -0.484375q0.671875 -0.484375 0.984375 -1.359375q0.328125 -0.890625 0.328125 -2.09375q0 -1.1875 -0.328125 -2.046875q-0.3125 -0.875 -0.984375 -1.34375q-0.65625 -0.484375 -1.71875 -0.484375q-1.5625 0 -2.28125 1.03125q-0.71875 1.03125 -0.71875 2.84375zm11.7229 -4.96875l0 9.984375l-1.515625 0l0 -9.984375l1.515625 0zm-0.734375 -3.734375q0.359375 0 0.625 0.25q0.28125 0.234375 0.28125 0.75q0 0.5 -0.28125 0.75q-0.265625 0.234375 -0.625 0.234375q-0.390625 0 -0.65625 -0.234375q-0.265625 -0.25 -0.265625 -0.75q0 -0.515625 0.265625 -0.75q0.265625 -0.25 0.65625 -0.25zm17.99086 7.0625q0 0.875 -0.203125 1.703125q-0.1875 0.8125 -0.59375 1.484375q-0.390625 0.65625 -1.0 1.046875q-0.59375 0.390625 -1.390625 0.390625q-0.859375 0 -1.359375 -0.484375q-0.5 -0.5 -0.59375 -1.171875l-0.078125 0q-0.359375 0.71875 -1.03125 1.1875q-0.65625 0.46875 -1.640625 0.46875q-1.421875 0 -2.1875 -0.9375q-0.765625 -0.953125 -0.765625 -2.515625q0 -1.21875 0.484375 -2.15625q0.484375 -0.953125 1.375 -1.484375q0.890625 -0.546875 2.09375 -0.546875q0.8125 0 1.578125 0.140625q0.765625 0.125 1.21875 0.296875l-0.171875 3.671875q-0.015625 0.328125 -0.03125 0.515625q0 0.171875 0 0.28125q0 0.96875 0.34375 1.3125q0.359375 0.34375 0.859375 0.34375q0.609375 0 1.015625 -0.46875q0.421875 -0.484375 0.640625 -1.28125q0.21875 -0.8125 0.21875 -1.796875q0 -1.75 -0.703125 -2.96875q-0.703125 -1.234375 -1.9375 -1.875q-1.234375 -0.65625 -2.828125 -0.65625q-1.59375 0 -2.828125 0.5q-1.234375 0.5 -2.09375 1.421875q-0.84375 0.921875 -1.28125 2.171875q-0.4375 1.25 -0.4375 2.78125q0 1.859375 0.65625 3.171875q0.65625 1.296875 1.9375 1.96875q1.28125 0.671875 3.125 0.671875q1.109375 0 2.140625 -0.25q1.03125 -0.234375 1.84375 -0.546875l0 1.187501q-0.8125 0.328125 -1.8125 0.546875q-0.984375 0.21875 -2.171875 0.21875q-2.203125 0 -3.765625 -0.828125q-1.546875 -0.82812595 -2.375 -2.375001q-0.828125 -1.546875 -0.828125 -3.71875q0 -1.75 0.53125 -3.21875q0.546875 -1.484375 1.5625 -2.5625q1.03125 -1.09375 2.484375 -1.6875q1.46875 -0.59375 3.3125 -0.59375q1.953125 0 3.453125 0.8125q1.515625 0.796875 2.375 2.296875q0.859375 1.484375 0.859375 3.53125zm-9.484375 1.203125q0 1.21875 0.46875 1.78125q0.484375 0.5625 1.34375 0.5625q1.0625 0 1.546875 -0.78125q0.5 -0.796875 0.578125 -2.109375l0.109375 -2.375q-0.265625 -0.078125 -0.640625 -0.140625q-0.375 -0.0625 -0.78125 -0.0625q-0.9375 0 -1.515625 0.453125q-0.578125 0.453125 -0.84375 1.15625q-0.265625 0.703125 -0.265625 1.515625zm18.600037 2.71875q0 0.953125 -0.484375 1.609375q-0.46875 0.65625 -1.359375 0.984375q-0.890625 0.328125 -2.109375 0.328125q-1.046875 0 -1.8125 -0.171875q-0.765625 -0.15625 -1.34375 -0.46875l0 -1.390625q0.609375 0.296875 1.453125 0.546875q0.859375 0.25 1.734375 0.25q1.296875 0 1.875 -0.421875q0.59375 -0.421875 0.59375 -1.140625q0 -0.40625 -0.234375 -0.71875q-0.234375 -0.3125 -0.78125 -0.609375q-0.546875 -0.296875 -1.515625 -0.65625q-0.953125 -0.359375 -1.65625 -0.71875q-0.6875 -0.359375 -1.078125 -0.875q-0.375 -0.53125 -0.375 -1.359375q0 -1.265625 1.015625 -1.9375q1.03125 -0.6875 2.703125 -0.6875q0.90625 0 1.6875 0.1875q0.796875 0.171875 1.46875 0.46875l-0.5 1.21875q-0.625 -0.265625 -1.328125 -0.4375q-0.703125 -0.1875 -1.421875 -0.1875q-1.046875 0 -1.609375 0.34375q-0.5625 0.34375 -0.5625 0.9375q0 0.46875 0.25 0.78125q0.265625 0.296875 0.84375 0.5625q0.578125 0.25 1.515625 0.609375q0.9375 0.34375 1.609375 0.71875q0.6875 0.375 1.046875 0.90625q0.375 0.515625 0.375 1.328125zm6.172119 -7.40625q1.78125 0 2.640625 0.796875q0.875 0.796875 0.875 2.5625l0 6.78125l-1.09375 0l-0.296875 -1.46875l-0.078125 0q-0.421875 0.546875 -0.875 0.921875q-0.453125 0.359375 -1.046875 0.546875q-0.59375 0.1875 -1.46875 0.1875q-0.90625 0 -1.609375 -0.3125q-0.703125 -0.328125 -1.109375 -0.96875q-0.40625 -0.65625 -0.40625 -1.640625q0 -1.5 1.171875 -2.296875q1.1875 -0.8125 3.609375 -0.875l1.734375 -0.078125l0 -0.609375q0 -1.296875 -0.5625 -1.8125q-0.546875 -0.515625 -1.5625 -0.515625q-0.78125 0 -1.5 0.234375q-0.703125 0.21875 -1.34375 0.53125l-0.46875 -1.15625q0.671875 -0.34375 1.546875 -0.578125q0.875 -0.25 1.84375 -0.25zm2.015625 5.21875l-1.515625 0.0625q-1.859375 0.078125 -2.625 0.625q-0.765625 0.53125 -0.765625 1.515625q0 0.84375 0.515625 1.265625q0.515625 0.40625 1.375 0.40625q1.328125 0 2.171875 -0.734375q0.84375 -0.734375 0.84375 -2.21875l0 -0.921875zm15.460358 -5.25q1.640625 0 2.484375 0.875q0.84375 0.859375 0.84375 2.75l0 6.546875l-1.5 0l0 -6.46875q0 -1.203125 -0.53125 -1.8125q-0.515625 -0.609375 -1.546875 -0.609375q-1.453125 0 -2.109375 0.84375q-0.65625 0.828125 -0.65625 2.46875l0 5.578125l-1.5 0l0 -6.46875q0 -0.8125 -0.234375 -1.34375q-0.234375 -0.546875 -0.6875 -0.8125q-0.453125 -0.265625 -1.15625 -0.265625q-1.0 0 -1.609375 0.40625q-0.59375 0.40625 -0.859375 1.21875q-0.265625 0.8125 -0.265625 1.984375l0 5.28125l-1.515625 0l0 -9.984375l1.21875 0l0.234375 1.40625l0.078125 0q0.296875 -0.515625 0.75 -0.859375q0.46875 -0.359375 1.03125 -0.546875q0.5625 -0.1875 1.203125 -0.1875q1.125 0 1.890625 0.4375q0.78125 0.421875 1.125 1.28125l0.078125 0q0.5 -0.859375 1.359375 -1.28125q0.859375 -0.4375 1.875 -0.4375zm12.880981 7.4375q0 0.953125 -0.484375 1.609375q-0.46875 0.65625 -1.359375 0.984375q-0.890625 0.328125 -2.109375 0.328125q-1.046875 0 -1.8125 -0.171875q-0.765625 -0.15625 -1.34375 -0.46875l0 -1.390625q0.609375 0.296875 1.453125 0.546875q0.859375 0.25 1.734375 0.25q1.296875 0 1.875 -0.421875q0.59375 -0.421875 0.59375 -1.140625q0 -0.40625 -0.234375 -0.71875q-0.234375 -0.3125 -0.78125 -0.609375q-0.546875 -0.296875 -1.515625 -0.65625q-0.953125 -0.359375 -1.65625 -0.71875q-0.6875 -0.359375 -1.078125 -0.875q-0.375 -0.53125 -0.375 -1.359375q0 -1.265625 1.015625 -1.9375q1.03125 -0.6875 2.703125 -0.6875q0.90625 0 1.6875 0.1875q0.796875 0.171875 1.46875 0.46875l-0.5 1.21875q-0.625 -0.265625 -1.328125 -0.4375q-0.703125 -0.1875 -1.421875 -0.1875q-1.046875 0 -1.609375 0.34375q-0.5625 0.34375 -0.5625 0.9375q0 0.46875 0.25 0.78125q0.265625 0.296875 0.84375 0.5625q0.578125 0.25 1.515625 0.609375q0.9375 0.34375 1.609375 0.71875q0.6875 0.375 1.046875 0.90625q0.375 0.515625 0.375 1.328125zm10.687744 -7.25l0 9.984375l-1.25 0l-0.21875 -1.40625l-0.078125 0q-0.3125 0.515625 -0.8125 0.875q-0.484375 0.359375 -1.09375 0.53125q-0.609375 0.1875 -1.3125 0.1875q-1.171875 0 -1.984375 -0.375q-0.796875 -0.390625 -1.203125 -1.1875q-0.40625 -0.8125 -0.40625 -2.0625l0 -6.546875l1.53125 0l0 6.4375q0 1.234375 0.5625 1.859375q0.5625 0.609375 1.71875 0.609375q1.109375 0 1.765625 -0.40625q0.671875 -0.421875 0.953125 -1.234375q0.296875 -0.828125 0.296875 -2.015625l0 -5.25l1.53125 0zm7.9259033 -0.1875q1.765625 0 2.671875 0.875q0.921875 0.875 0.921875 2.796875l0 6.5l-1.5 0l0 -6.40625q0 -1.25 -0.578125 -1.859375q-0.5625 -0.625 -1.734375 -0.625q-1.65625 0 -2.328125 0.9375q-0.671875 0.9375 -0.671875 2.71875l0 5.234375l-1.515625 0l0 -9.984375l1.21875 0l0.234375 1.4375l0.078125 0q0.3125 -0.53125 0.796875 -0.890625q0.5 -0.359375 1.109375 -0.546875q0.609375 -0.1875 1.296875 -0.1875zm9.488403 14.656251q-1.96875 0 -3.03125 -0.734375q-1.0625 -0.734375 -1.0625 -2.0625q0 -0.93750095 0.59375 -1.609376q0.59375 -0.65625 1.65625 -0.875q-0.390625 -0.171875 -0.671875 -0.53125q-0.28125 -0.375 -0.28125 -0.84375q0 -0.546875 0.3125 -0.953125q0.3125 -0.421875 0.9375 -0.8125q-0.78125 -0.3125 -1.28125 -1.078125q-0.484375 -0.765625 -0.484375 -1.765625q0 -1.078125 0.4375 -1.828125q0.453125 -0.765625 1.296875 -1.171875q0.859375 -0.40625 2.0625 -0.40625q0.265625 0 0.53125 0.03125q0.265625 0.015625 0.515625 0.0625q0.25 0.03125 0.421875 0.09375l3.421875 0l0 0.96875l-1.828125 0.234375q0.265625 0.359375 0.4375 0.859375q0.1875 0.5 0.1875 1.109375q0 1.484375 -1.015625 2.375q-1.0 0.875 -2.765625 0.875q-0.421875 0 -0.859375 -0.078125q-0.4375 0.25 -0.671875 0.546875q-0.234375 0.296875 -0.234375 0.703125q0 0.28125 0.171875 0.453125q0.1875 0.171875 0.515625 0.25q0.34375 0.078125 0.8125 0.078125l1.765625 0q1.625 0 2.484375 0.6875q0.875 0.6875 0.875 2.000001q0 1.65625 -1.34375 2.53125q-1.34375 0.890625 -3.90625 0.890625zm0.046875 -1.1875q1.25 0 2.0625 -0.25q0.8125 -0.25 1.21875 -0.71875q0.40625 -0.46875 0.40625 -1.109375q0 -0.60937595 -0.28125 -0.92187595q-0.265625 -0.296875 -0.796875 -0.390625q-0.53125 -0.109375 -1.296875 -0.109375l-1.71875 0q-0.6875 0 -1.1875 0.203125q-0.5 0.203125 -0.765625 0.609375q-0.265625 0.42187595 -0.265625 1.031251q0 0.8125 0.671875 1.234375q0.6875 0.421875 1.953125 0.421875zm0.390625 -7.984376q1.09375 0 1.640625 -0.546875q0.546875 -0.546875 0.546875 -1.59375q0 -1.109375 -0.5625 -1.671875q-0.546875 -0.5625 -1.640625 -0.5625q-1.03125 0 -1.59375 0.578125q-0.5625 0.578125 -0.5625 1.6875q0 1.015625 0.5625 1.5625q0.5625 0.546875 1.609375 0.546875zm6.6766357 3.734375q0 -0.625 0.3125 -0.890625q0.3125 -0.28125 0.765625 -0.28125q0.453125 0 0.765625 0.28125q0.328125 0.265625 0.328125 0.890625q0 0.640625 -0.328125 0.921875q-0.3125 0.28125 -0.765625 0.28125q-0.453125 0 -0.765625 -0.28125q-0.3125 -0.28125 -0.3125 -0.921875zm9.135284 1.140625q-1.34375 0 -2.375 -0.546875q-1.03125 -0.5625 -1.609375 -1.703125q-0.578125 -1.140625 -0.578125 -2.875q0 -1.8125 0.609375 -2.96875q0.609375 -1.15625 1.671875 -1.703125q1.0625 -0.5625 2.421875 -0.5625q0.75 0 1.4375 0.15625q0.703125 0.15625 1.15625 0.375l-0.453125 1.265625q-0.453125 -0.171875 -1.0625 -0.3125q-0.59375 -0.15625 -1.109375 -0.15625q-1.03125 0 -1.734375 0.453125q-0.6875 0.4375 -1.03125 1.3125q-0.328125 0.859375 -0.328125 2.125q0 1.203125 0.328125 2.0625q0.328125 0.859375 0.984375 1.3125q0.671875 0.453125 1.65625 0.453125q0.796875 0 1.4375 -0.171875q0.640625 -0.171875 1.15625 -0.390625l0 1.34375q-0.5 0.25 -1.125 0.390625q-0.609375 0.140625 -1.453125 0.140625zm13.545792 -5.203125q0 1.234375 -0.328125 2.203125q-0.3125 0.96875 -0.921875 1.640625q-0.59375 0.65625 -1.453125 1.015625q-0.84375 0.34375 -1.921875 0.34375q-1.0 0 -1.828125 -0.34375q-0.828125 -0.359375 -1.4375 -1.015625q-0.609375 -0.671875 -0.953125 -1.640625q-0.328125 -0.96875 -0.328125 -2.203125q0 -1.640625 0.5625 -2.78125q0.5625 -1.15625 1.59375 -1.765625q1.03125 -0.609375 2.453125 -0.609375q1.375 0 2.390625 0.609375q1.03125 0.609375 1.59375 1.765625q0.578125 1.15625 0.578125 2.78125zm-7.59375 0q0 1.203125 0.3125 2.09375q0.328125 0.875 0.984375 1.359375q0.671875 0.484375 1.71875 0.484375q1.03125 0 1.703125 -0.484375q0.671875 -0.484375 0.984375 -1.359375q0.328125 -0.890625 0.328125 -2.09375q0 -1.1875 -0.328125 -2.046875q-0.3125 -0.875 -0.984375 -1.34375q-0.65625 -0.484375 -1.71875 -0.484375q-1.5625 0 -2.28125 1.03125q-0.71875 1.03125 -0.71875 2.84375zm21.051025 -5.15625q1.640625 0 2.484375 0.875q0.84375 0.859375 0.84375 2.75l0 6.546875l-1.5 0l0 -6.46875q0 -1.203125 -0.53125 -1.8125q-0.515625 -0.609375 -1.546875 -0.609375q-1.453125 0 -2.109375 0.84375q-0.65625 0.828125 -0.65625 2.46875l0 5.578125l-1.5 0l0 -6.46875q0 -0.8125 -0.234375 -1.34375q-0.234375 -0.546875 -0.6875 -0.8125q-0.453125 -0.265625 -1.15625 -0.265625q-1.0 0 -1.609375 0.40625q-0.59375 0.40625 -0.859375 1.21875q-0.265625 0.8125 -0.265625 1.984375l0 5.28125l-1.515625 0l0 -9.984375l1.21875 0l0.234375 1.40625l0.078125 0q0.296875 -0.515625 0.75 -0.859375q0.46875 -0.359375 1.03125 -0.546875q0.5625 -0.1875 1.203125 -0.1875q1.125 0 1.890625 0.4375q0.78125 0.421875 1.125 1.28125l0.078125 0q0.5 -0.859375 1.359375 -1.28125q0.859375 -0.4375 1.875 -0.4375z" fill-rule="nonzero"/></g></svg>